<svg width="90" height="50" xmlns="http://www.w3.org/2000/svg">
 <!-- Generator: Sketch 55 (78076) - https://sketchapp.com -->

 <title>logo</title>
 <desc>Created with Sketch.</desc>
 <g>
  <title>background</title>
  <rect fill="none" id="canvas_background" height="52" width="92" y="-1" x="-1"/>
 </g>
 <g>
  <title>Layer 1</title>
  <g fill-rule="evenodd" fill="none" id="Web">
   <g stroke="null" fill-rule="nonzero" fill="#FFFFFF" id="Sign-In">
    <g stroke="null" id="Group-6">
     <g stroke="null" id="Group-5">
      <g stroke="null" id="logo">
       <path fill="#7159c1" stroke="null" id="Path" d="m42.761112,8.897222c0,-3.1 -1.377778,-6.888889 -7.75,-6.888889c-3.1,0 -4.305556,0.861111 -5.855556,1.894444c-1.722222,1.205556 -3.961111,2.755556 -8.438889,2.755556c-2.927778,0 -4.994445,-0.516667 -6.716667,-1.205556c1.894444,4.65 6.544445,10.505556 18.427778,10.505556c6.2,-0.172222 10.333334,-3.788889 10.333334,-7.061111z"/>
       <path fill="#7159c1" stroke="null" id="Path" d="m56.53889,34.213889c-6.027778,0 -9.644445,-1.894444 -11.538889,-3.444445c-1.894444,1.55 -5.511111,3.444445 -11.538889,3.444445c-9.472222,0 -12.744445,-12.572222 -13.605556,-16.361111c-0.688889,-0.344444 -1.205556,-0.516667 -1.894444,-0.861111l0.861111,7.922222c1.55,13.433334 18.083334,22.388889 26.177778,23.077778c7.577778,-0.861111 24.111112,-9.644445 25.833334,-23.077778l0.861111,-8.094445c-0.516667,0.344444 -1.205556,0.688889 -1.894444,1.033333c-0.516667,3.961111 -3.788889,16.361111 -13.261111,16.361111z"/>
       <path fill="#7159c1" stroke="null" id="Path" d="m61.016668,3.902778c-1.55,-1.033333 -2.927778,-1.894444 -5.855556,-1.894444c-6.372222,0 -7.75,3.788889 -7.75,6.888889c0,3.272222 4.133333,6.888889 10.161111,6.888889c11.883334,0 16.533334,-5.855556 18.427778,-10.505556c-1.722222,0.688889 -3.788889,1.205556 -6.544445,1.205556c-4.477778,0.172222 -6.716667,-1.377778 -8.438889,-2.583333z"/>
      </g>
     </g>
    </g>
   </g>
  </g>
 </g>
</svg>